<?xml version="1.0" encoding="utf-8"?>
<!-- Generator: Adobe Illustrator 23.0.1, SVG Export Plug-In . SVG Version: 6.00 Build 0)  -->
<svg version="1.1" id="Layer_1" xmlns="http://www.w3.org/2000/svg" xmlns:xlink="http://www.w3.org/1999/xlink" x="0px" y="0px"
	 viewBox="0 0 180 180" style="enable-background:new 0 0 180 180;" xml:space="preserve">
<style type="text/css">
	.st0{fill:url(#Path_238_1_);}
</style>
<radialGradient id="Path_238_1_" cx="-93.7149" cy="419.6212" r="2.019" gradientTransform="matrix(66.405 0 0 -66.402 6344.2822 27911.4648)" gradientUnits="userSpaceOnUse">
	<stop  offset="0" style="stop-color:#F7941E"/>
	<stop  offset="1" style="stop-color:#ED1C24"/>
</radialGradient>
<path id="Path_238" class="st0" d="M75.8,86L4.6,157.2c-2.7-5.4-4.1-11.4-4.1-17.5v-22.4l53.3-53.3L75.8,86z M30.8,41L0.5,71.3v33.6
	l47.1-47.1L30.8,41z M40.2,0.5C18.3,0.5,0.5,18.3,0.5,40.2l0,0v18.7L58.9,0.5L40.2,0.5z M106.4,153.4l59.5-59.5l-23.5-23.5
	c-0.9,2.1-0.2,5.9,2,12.3c-11.2-11.5-14.5-10.8-16.1,8.2c-5-18.9-8.3-19.5-19.4-3.2c4-15.1,2.8-19.2-5.7-16.6l-39.6,39.6
	L106.4,153.4z M53.8,51.6l51.1-51.1H71.3L37,34.8L53.8,51.6z M82,79.8l19.2-19.2c-2.5-1.4-5.4-2.1-8.3-2c8.4-5.4,7.7-8.7-0.3-11.8
	c7.9-3.5,8.4-6.8-0.3-12.3c11.2-0.7,13-3.6,5.8-13.3c12.2,4.6,15,2.7,12-9.6c9.2,9.7,12.5,9,14.7-3.5c4.3,12.4,7.6,13,14.7,3.1
	c-0.4,5.1-0.1,8.4,1.1,10.1l16.7-16.7c-5.4-2.7-11.4-4.1-17.5-4.1h-22.4L60,57.8L82,79.8z M57.4,116.9l-48,48
	c7.5,9.3,18.8,14.7,30.8,14.6h0.9l39.4-39.4L57.4,116.9z M164.9,9.4l-15.4,15.4c-1.9,6.3,0.7,8.2,8.4,7.8c-6.7,6.6-6,9.8,1.3,12.6
	c-7.2,3.9-7.8,7.2-1.3,12.3c-7.6,0.9-10.1,3.2-6.9,9L179.5,95V40.2C179.5,28.3,174.1,17,164.9,9.4L164.9,9.4z M112.6,159.6
	l19.8,19.8h7.3c21.9,0,39.7-17.8,39.7-39.7l0,0v-32.3l-7.3-7.3L112.6,159.6z M92.8,179.5H120l-13.6-13.6L92.8,179.5z M86.8,146.3
	l-33.2,33.2h26.7l19.8-19.8L86.8,146.3z M141.8,26.2c-13.3,10.9-15.7,9.8-18.4-3.8c-2.7,13.7-5.1,14.8-16.5,6.8
	c8,11.4,6.9,13.8-6.9,16.5c13.8,2.7,14.8,5.1,6.9,16.4c11.4-7.9,13.8-6.8,16.5,6.6c2.7-13.4,5.1-14.5,18.6-3.7
	c-10-14.3-9-16.7,11.1-19.5C133.1,43,132,40.6,141.8,26.2L141.8,26.2z"/>
</svg>
